<?xml version="1.0" standalone="no"?>
<!DOCTYPE svg PUBLIC "-//W3C//DTD SVG 20010904//EN"
 "http://www.w3.org/TR/2001/REC-SVG-20010904/DTD/svg10.dtd">
<svg version="1.0" xmlns="http://www.w3.org/2000/svg"
 width="16.000000pt" height="16.000000pt" viewBox="0 0 16.000000 16.000000"
 preserveAspectRatio="xMidYMid meet">

<g transform="translate(0.000000,16.000000) scale(0.100000,-0.100000)"
fill="#000000" stroke="none">
<path d="M19 142 c-17 -14 -20 -25 -16 -45 7 -25 61 -87 77 -87 16 0 70 62 77
87 8 35 -29 68 -58 53 -13 -7 -25 -7 -38 0 -15 7 -25 5 -42 -8z m80 -3 c13 7
23 6 35 -2 24 -17 13 -57 -25 -93 l-29 -28 -29 28 c-38 36 -49 76 -25 93 12 8
22 9 35 2 13 -6 25 -6 38 0z"/>
</g>
</svg>
